# xmcd CD database file
#
# Track frame offsets:
#	150
#	12936
#	24516
#	37691
#	47407
#	58526
#	74843
#	90296
#	106410
#	114644
#	126360
#	135757
#	146512
#	156510
#	164415
#	178751
#	189383
#	201104
#
# Disc length: 2966 seconds
#
# Revision: 1
# Processed by: cddbd v1.5.1PL2 Copyright (c) Steve Scherf et al.
# Submitted via: CDex 1.51
#
DISCID=f10b9412
DTITLE=Variés - Les étoiles du negro spiritual [CD1)
DYEAR=1998
DGENRE=Blues
TTITLE0=John Littleton - He's got the whole word 
TTITLE1=John Littleton - Go tell it on the mountains
TTITLE2=John Littleton - Down by the riverside
TTITLE3=John Littleton - Ride on, king jesus
TTITLE4=John Littleton - Elijah rock
TTITLE5=John Littleton - Peter go ring them bells
TTITLE6=John Littleton - Where you there
TTITLE7=John Littleton - In the middle od this world
TTITLE8=John Littleton - Little David play on your harp
TTITLE9=John Littleton - Somebody's knocking at your door
TTITLE10=John Littleton - This train
TTITLE11=John Littleton - My soul's been anchored
TTITLE12=John Littleton - Kumbaya
TTITLE13=John Littleton - I want to be ready
TTITLE14=John Littleton - Did'nt my lord deliver Daniel?
TTITLE15=John Littleton - Old time religion
TTITLE16=John Littleton - Packing up
TTITLE17=John Littleton - Oh! Freedom
EXTD=YEAR: 1998
EXTT0=
EXTT1=
EXTT2=
EXTT3=
EXTT4=
EXTT5=
EXTT6=
EXTT7=
EXTT8=
EXTT9=
EXTT10=
EXTT11=
EXTT12=
EXTT13=
EXTT14=
EXTT15=
EXTT16=
EXTT17=
PLAYORDER=
